HIERARCHY
ROOT Hips
{
	OFFSET 0.000000 1.471914 24.280096
	CHANNELS 6 Xposition Yposition Zposition Xrotation Yrotation Zrotation
	JOINT Spine
	{
		OFFSET 0.000000 0.900110 1.860670
		CHANNELS 6 Xposition Yposition Zposition Xrotation Yrotation Zrotation
		JOINT Spine1
		{
			OFFSET 0.000000 0.400320 2.270309
			CHANNELS 6 Xposition Yposition Zposition Xrotation Yrotation Zrotation
			JOINT Spine2
			{
				OFFSET 0.000000 0.200920 2.296560
				CHANNELS 6 Xposition Yposition Zposition Xrotation Yrotation Zrotation
				JOINT Spine3
				{
					OFFSET 0.000000 0.000000 2.305330
					CHANNELS 6 Xposition Yposition Zposition Xrotation Yrotation Zrotation
					JOINT Neck
					{
						OFFSET 0.000000 -0.864490 6.051487
						CHANNELS 6 Xposition Yposition Zposition Xrotation Yrotation Zrotation
						JOINT Head
						{
							OFFSET 0.000000 -0.550429 3.121674
							CHANNELS 6 Xposition Yposition Zposition Xrotation Yrotation Zrotation
							End Site
							{
								OFFSET 0.000000 0.000000 3.731750
							}
						}
					}
					JOINT RightShoulder
					{
						OFFSET -0.788280 -1.313800 4.256718
						CHANNELS 6 Xposition Yposition Zposition Xrotation Yrotation Zrotation
						JOINT RightArm
						{
							OFFSET -3.915130 0.000000 0.000000
							CHANNELS 6 Xposition Yposition Zposition Xrotation Yrotation Zrotation
							JOINT RightForeArm
							{
								OFFSET -6.914910 0.000000 0.000000
								CHANNELS 6 Xposition Yposition Zposition Xrotation Yrotation Zrotation
								JOINT RightHand
								{
									OFFSET -6.096219 0.000000 0.000000
									CHANNELS 6 Xposition Yposition Zposition Xrotation Yrotation Zrotation
									JOINT RightHandEnd
									{
										OFFSET -1.749950 0.000000 0.000000
										CHANNELS 6 Xposition Yposition Zposition Xrotation Yrotation Zrotation
										End Site
										{
											OFFSET -1.749950 0.000000 0.000000
										}
									}
									JOINT RightHandThumb1
									{
										OFFSET -0.699980 -1.166630 -0.466648
										CHANNELS 6 Xposition Yposition Zposition Xrotation Yrotation Zrotation
										End Site
										{
											OFFSET -1.690319 -0.452920 0.000000
										}
									}
								}
							}
						}
					}
					JOINT LeftShoulder
					{
						OFFSET 0.788280 -1.313800 4.256718
						CHANNELS 6 Xposition Yposition Zposition Xrotation Yrotation Zrotation
						JOINT LeftArm
						{
							OFFSET 3.915130 0.000000 0.000000
							CHANNELS 6 Xposition Yposition Zposition Xrotation Yrotation Zrotation
							JOINT LeftForeArm
							{
								OFFSET 6.914910 0.000000 0.000000
								CHANNELS 6 Xposition Yposition Zposition Xrotation Yrotation Zrotation
								JOINT LeftHand
								{
									OFFSET 6.096219 0.000000 0.000000
									CHANNELS 6 Xposition Yposition Zposition Xrotation Yrotation Zrotation
									JOINT LeftHandEnd
									{
										OFFSET 1.749950 0.000000 0.000000
										CHANNELS 6 Xposition Yposition Zposition Xrotation Yrotation Zrotation
										End Site
										{
											OFFSET 1.749950 0.000000 0.000000
										}
									}
									JOINT LeftHandThumb1
									{
										OFFSET 0.699980 -1.166630 -0.466648
										CHANNELS 6 Xposition Yposition Zposition Xrotation Yrotation Zrotation
										End Site
										{
											OFFSET 1.690319 -0.452920 0.000000
										}
									}
								}
							}
						}
					}
				}
			}
		}
	}
	JOINT RightUpLeg
	{
		OFFSET -2.338570 -0.252550 -0.551512
		CHANNELS 6 Xposition Yposition Zposition Xrotation Yrotation Zrotation
		JOINT RightLeg
		{
			OFFSET 0.000000 0.000000 -10.744959
			CHANNELS 6 Xposition Yposition Zposition Xrotation Yrotation Zrotation
			JOINT RightFoot
			{
				OFFSET 0.000000 -0.000001 -10.930849
				CHANNELS 6 Xposition Yposition Zposition Xrotation Yrotation Zrotation
				JOINT RightToeBase
				{
					OFFSET 0.000000 -4.087269 -1.487650
					CHANNELS 6 Xposition Yposition Zposition Xrotation Yrotation Zrotation
					End Site
					{
						OFFSET 0.000000 -1.891870 0.000000
					}
				}
			}
		}
	}
	JOINT LeftUpLeg
	{
		OFFSET 2.338570 -0.252550 -0.551512
		CHANNELS 6 Xposition Yposition Zposition Xrotation Yrotation Zrotation
		JOINT LeftLeg
		{
			OFFSET 0.000000 0.000000 -10.744959
			CHANNELS 6 Xposition Yposition Zposition Xrotation Yrotation Zrotation
			JOINT LeftFoot
			{
				OFFSET 0.000000 -0.000001 -10.930849
				CHANNELS 6 Xposition Yposition Zposition Xrotation Yrotation Zrotation
				JOINT LeftToeBase
				{
					OFFSET 0.000000 -4.087269 -1.487650
					CHANNELS 6 Xposition Yposition Zposition Xrotation Yrotation Zrotation
					End Site
					{
						OFFSET 0.000000 -1.891870 0.000000
					}
				}
			}
		}
	}
}
MOTION
Frames: 4
Frame Time: 0.041667
-0.000061 26.558777 40.444401 -14.666113 5.338810 -14.620076 -0.000007 0.900100 1.860719 29.676223 -11.129078 -1.953239 -0.000003 0.400304 2.270285 -0.000009 -0.000003 0.000001 0.000009 0.200931 2.296530 -0.000001 -0.000001 -0.000002 0.000003 -0.000040 2.305342 -0.000000 0.000006 -5.756988 -0.000011 -0.864461 6.051498 -6.604026 4.838360 -170.936631 0.000019 -0.550438 3.121696 0.000003 -0.000000 -0.000001 -0.788290 -1.313750 4.256753 -132.186673 53.799122 -49.575094 -3.915093 -0.000001 -0.000019 -0.000002 0.000001 -0.000000 -6.914876 -0.000001 0.000001 0.000007 0.000003 -25.622130 -6.096197 -0.000009 0.000007 -0.000008 0.000027 -0.000015 -1.749927 0.000009 0.000000 0.000002 0.000001 -0.000001 -0.700024 -1.166626 -0.466651 0.000007 0.000002 -0.000004 0.788270 -1.313798 4.256719 -113.243710 -38.337066 72.741542 3.915163 -0.000015 0.000007 0.000001 0.000000 0.000003 6.914904 -0.000010 -0.000022 0.000013 -0.000002 31.621525 6.096217 0.000053 -0.000003 0.000019 -0.000031 -0.000026 1.749937 0.000012 0.000011 0.000004 0.000000 -0.000004 0.699983 -1.166605 -0.466654 0.000011 -0.000001 -0.000017 -2.338587 -0.252552 -0.551517 21.356924 -1.282046 -1.393980 0.000011 -0.000017 -10.744950 12.677506 6.993082 -1.059539 -0.000016 0.000007 -10.930852 -0.000003 -0.000000 -0.000005 0.000010 -4.087270 -1.487634 0.000002 0.000002 0.000000 2.338569 -0.252543 -0.551470 25.429291 1.591272 -1.644276 -0.000004 -0.000010 -10.744919 3.540959 3.185721 -0.115681 -0.000000 -0.000011 -10.930859 0.000012 0.000002 0.000001 -0.000011 -4.087228 -1.487644 0.000003 -0.000000 -0.000002 
-0.000061 26.558777 40.444420 -14.699184 5.272484 -14.746691 -0.000005 0.900099 1.860715 29.760855 -10.790648 -2.005834 -0.000000 0.400304 2.270285 -0.000009 -0.000002 0.000002 0.000011 0.200923 2.296532 0.000001 0.000000 0.000000 0.000004 -0.000035 2.305342 0.000004 0.000007 -5.675942 -0.000011 -0.864459 6.051497 -6.340777 5.231073 -171.285435 0.000018 -0.550440 3.121693 0.000003 -0.000000 -0.000001 -0.788290 -1.313746 4.256756 -133.368774 54.806073 -48.550747 -3.915095 0.000000 -0.000023 -0.000002 -0.000000 -0.000001 -6.914876 -0.000001 -0.000003 0.000007 0.000005 -25.512707 -6.096200 -0.000011 0.000006 -0.000011 0.000028 -0.000017 -1.749924 0.000012 0.000007 0.000002 -0.000001 -0.000003 -0.700021 -1.166626 -0.466645 0.000011 0.000001 -0.000006 0.788267 -1.313795 4.256723 -113.175688 -37.368948 72.720300 3.915158 -0.000015 0.000004 0.000000 -0.000000 0.000003 6.914910 -0.000009 -0.000026 0.000011 -0.000001 32.375660 6.096225 0.000056 0.000001 0.000019 -0.000031 -0.000026 1.749930 0.000018 0.000011 0.000001 -0.000002 -0.000002 0.699979 -1.166598 -0.466651 0.000011 0.000002 -0.000019 -2.338585 -0.252556 -0.551518 21.725114 -1.658132 -1.453882 0.000011 -0.000017 -10.744950 12.148632 7.624728 -1.112043 -0.000017 0.000012 -10.930853 -0.000003 -0.000000 -0.000006 0.000010 -4.087272 -1.487642 0.000003 0.000002 -0.000000 2.338570 -0.252544 -0.551469 25.150367 1.442423 -1.669056 -0.000005 -0.000011 -10.744926 3.617776 3.344612 -0.133638 -0.000002 -0.000010 -10.930864 0.000012 0.000002 -0.000002 -0.000011 -4.087232 -1.487649 0.000001 -0.000001 0.000001 
-0.000070 26.558784 40.444420 -14.530959 5.632503 -15.160419 -0.000006 0.900100 1.860709 29.780950 -10.750504 -1.883544 -0.000001 0.400306 2.270289 -0.000008 -0.000003 0.000002 0.000010 0.200932 2.296528 -0.000001 -0.000000 0.000000 0.000005 -0.000039 2.305342 0.000008 0.000009 -5.708644 -0.000010 -0.864467 6.051502 -6.289365 5.196145 -170.914228 0.000019 -0.550442 3.121696 0.000002 -0.000000 -0.000004 -0.788289 -1.313754 4.256752 -135.048085 56.044970 -47.076211 -3.915098 -0.000004 -0.000027 -0.000002 0.000000 -0.000001 -6.914876 0.000003 0.000001 0.000007 0.000004 -25.208206 -6.096191 -0.000015 0.000008 -0.000013 0.000030 -0.000018 -1.749928 0.000007 0.000004 0.000002 -0.000000 -0.000001 -0.700019 -1.166628 -0.466641 0.000007 0.000001 -0.000006 0.788269 -1.313802 4.256723 -113.114551 -37.171727 73.087245 3.915154 -0.000012 0.000011 0.000001 0.000000 0.000002 6.914903 -0.000008 -0.000030 0.000011 0.000003 33.348870 6.096228 0.000055 -0.000004 0.000020 -0.000032 -0.000024 1.749931 0.000016 0.000014 0.000001 -0.000006 -0.000001 0.699980 -1.166601 -0.466655 0.000011 -0.000002 -0.000017 -2.338586 -0.252553 -0.551523 21.667165 -2.134484 -1.362885 0.000010 -0.000018 -10.744952 12.071839 7.877825 -1.158717 -0.000015 0.000011 -10.930848 -0.000002 -0.000000 -0.000006 0.000011 -4.087273 -1.487636 0.000005 0.000003 -0.000001 2.338568 -0.252541 -0.551478 25.002512 0.914015 -1.559930 -0.000004 -0.000012 -10.744922 3.791735 3.733863 -0.161032 -0.000001 -0.000006 -10.930861 0.000014 -0.000000 -0.000002 -0.000011 -4.087232 -1.487647 0.000003 -0.000000 -0.000001 
-0.000071 26.558784 40.444412 -14.478654 5.974576 -15.456187 -0.000005 0.900100 1.860715 30.037184 -10.812586 -1.779856 -0.000003 0.400306 2.270281 -0.000009 -0.000003 0.000001 0.000011 0.200932 2.296534 -0.000000 0.000001 0.000002 0.000006 -0.000038 2.305346 0.000005 0.000003 -5.667725 -0.000008 -0.864460 6.051501 -6.357221 5.186347 -169.607490 0.000019 -0.550440 3.121693 0.000003 -0.000001 -0.000002 -0.788288 -1.313749 4.256750 -135.920204 55.993324 -46.296969 -3.915100 -0.000004 -0.000019 -0.000002 -0.000001 -0.000000 -6.914879 0.000002 0.000001 0.000007 0.000007 -24.960153 -6.096200 -0.000013 0.000006 -0.000011 0.000026 -0.000014 -1.749924 0.000009 0.000011 -0.000001 -0.000001 0.000000 -0.700010 -1.166628 -0.466648 0.000004 0.000001 -0.000007 0.788269 -1.313798 4.256721 -113.020581 -36.881901 73.537669 3.915156 -0.000011 0.000004 0.000000 0.000001 0.000002 6.914910 -0.000007 -0.000026 0.000012 0.000002 34.528362 6.096225 0.000057 -0.000003 0.000019 -0.000027 -0.000026 1.749927 0.000019 0.000015 -0.000004 -0.000001 -0.000006 0.699976 -1.166596 -0.466651 0.000008 0.000003 -0.000020 -2.338585 -0.252555 -0.551521 21.804722 -2.778428 -1.287258 0.000011 -0.000020 -10.744949 11.782355 8.214956 -1.218572 -0.000016 0.000013 -10.930850 0.000000 0.000000 -0.000002 0.000010 -4.087263 -1.487635 0.000009 0.000002 -0.000001 2.338569 -0.252545 -0.551474 25.064796 0.488938 -1.467321 -0.000005 -0.000011 -10.744923 3.975989 3.961259 -0.183867 -0.000001 -0.000008 -10.930862 0.000012 -0.000000 -0.000002 -0.000014 -4.087221 -1.487645 -0.000005 -0.000001 0.000001 
